<?xml version="1.0" encoding="UTF-8"?>
<svg id="Layer_1" data-name="Layer 1" xmlns="http://www.w3.org/2000/svg" viewBox="0 0 404.56554 386.91385">
  <path d="M222.97608,15.03457l19.31411,59.44271c10.97586,33.78023,42.45501,56.65117,77.97364,56.65117h62.50177c21.07771,0,29.8414,26.97185,12.78917,39.36102l-50.56499,36.73762c-28.73518,20.87733-40.75914,57.88328-29.78328,91.66351l19.31411,59.44271c6.51337,20.04609-16.43025,36.71561-33.48248,24.32645l-50.56499-36.73762c-28.73518-20.87733-67.64554-20.87733-96.38072,0l-50.56499,36.73762c-17.05223,12.38917-39.99585-4.28035-33.48248-24.32645l19.31411-59.44271c10.97586-33.78023-1.0481-70.78618-29.78328-91.66351l-50.56499-36.73762c-17.05223-12.38917-8.28854-39.36102,12.78917-39.36102h62.50177c35.51863,0,66.99778-22.87094,77.97364-56.65117l19.31411-59.44271c6.51337-20.04609,34.87325-20.04609,41.38662,0Z"/>
</svg>